<svg xmlns="http://www.w3.org/2000/svg" height="530" width="480" version="1.0" xmlns:xlink="http://www.w3.org/1999/xlink"><defs><linearGradient id="a"><stop stop-color="#fff" stop-opacity=".804" offset="0"/><stop stop-color="#fff" stop-opacity="0" offset="1"/></linearGradient><radialGradient id="e" xlink:href="#a" gradientUnits="userSpaceOnUse" cy="147.48" cx="353.38" gradientTransform="matrix(1 0 0 .0763 -24.81 -97.659)" r="44.017"/><radialGradient id="c" xlink:href="#a" gradientUnits="userSpaceOnUse" cy="273.52" cx="228.4" gradientTransform="translate(102.6 134.31) scale(.44573)" r="12.374"/><linearGradient id="h" y2="138.74" gradientUnits="userSpaceOnUse" x2="179.38" gradientTransform="translate(0 10)" y1="190.4" x1="145.38"><stop stop-color="#ffff25" offset="0"/><stop stop-color="#ffff25" stop-opacity="0" offset="1"/></linearGradient><linearGradient id="j" y2="117.89" gradientUnits="userSpaceOnUse" x2="142.79" gradientTransform="translate(2.172 5.005)" y1="168.84" x1="110.73"><stop stop-color="#f03031" offset="0"/><stop stop-color="#f03031" stop-opacity="0" offset="1"/></linearGradient><linearGradient id="l" y2="328" gradientUnits="userSpaceOnUse" x2="323.15" y1="329.57" x1="277.99"><stop stop-color="#26b144" offset="0"/><stop stop-color="#26b144" stop-opacity="0" offset="1"/></linearGradient><filter id="k" height="1.22" width="1.419" y="-.11" x="-.209"><feGaussianBlur stdDeviation="2.463"/></filter><linearGradient id="n" y2="261.17" gradientUnits="userSpaceOnUse" x2="309.04" gradientTransform="translate(0 10)" y1="277.76" x1="271.04"><stop stop-color="#d82b2c" offset="0"/><stop stop-color="#d82b2c" stop-opacity="0" offset="1"/></linearGradient><filter id="m" height="1.257" width="1.271" y="-.128" x="-.136"><feGaussianBlur stdDeviation="1.744"/></filter><filter id="i" height="1.391" width="1.821" y="-.195" x="-.411"><feGaussianBlur stdDeviation="2.384"/></filter><filter id="g" height="1.352" width="1.224" y="-.176" x="-.112"><feGaussianBlur stdDeviation="1.983"/></filter><filter id="b" height="1.48" width="1.197" y="-.24" x="-.099"><feGaussianBlur stdDeviation="13.774"/></filter></defs><path opacity=".6" d="M76.531 399.59l176.75 112.61 70-38.92-39.26-21.7 125.37-80.94-171.06-128.4-141.39 92.09 26.81 25.69-47.219 39.57z" fill-rule="evenodd" filter="url(#b)" color="#000"/><path d="M135.08 99.938L190.76 65.7c4.61-2.833 6.91-3.14 10.06-2.625-.09-3.046 2.13-6.692 5.94-9.062l52.73-32.758c3.48-2.163 6.94-2.03 9.28 0l57.4 49.851c2.91 3.174 2.06 5.708.64 8.268 3.53-.915 7.43-.914 10.87 2.077l56.95 49.409c3.27 2.84 3.74 8.5 2.83 11.75 2.42-1.52 7.94-1.13 11.05 1.68l59.75 54.01c2.3 2.07 3.22 5.92.79 10.96l-26.39 53.88c-.69 1.22-1.31 1.49-2.97 2.47 1.9-.11 1.36 2.47.66 4.07l-20.59 41.78c-1.1 2.07-3.37 3.9-5.63 5.06 1.7.19 1.99 1.87 1.21 3.39l-16.2 34.57c-.8 1.67-1.9 3.41-4.24 5.47l-46.12 34.12c-.75.3-1.47 1.62-2.85.12.23 2.26-1 3.47-2.91 5.27l-28.49 22.71-208.66-103.22 22.45-207.89c.78-7.25 3.84-9.32 6.76-11.122z" fill-rule="evenodd"/><g opacity=".7" fill-rule="evenodd"><path d="M464.579 214.05l-22.09 44.91c-.76 1.6-3.2 4.42-4.27 5.23l-37.61 27.61c-2.11 1.6-3-.33-1.56-3.48l14.42-34.26c1.31-2.86 2.77-5.6 5-7.41l43.34-33.52c2.34-1.91 3.81-1.27 2.77.92z" fill="#2ac44b"/><path d="M402.009 263l-19.35 41.43c-.72 1.55-2.37 2.86-3.76 3.95l-45.59 35.89c-2.76 2.18-3.17-.52-1.83-3.67l14.07-33.21c1.18-2.78 2.63-5.1 4.8-6.8l47.6-37.2c2.28-1.79 5.04-2.5 4.06-.39zm36.34 6.97l-18.97 38.84c-.7 1.46-1.41 2.65-2.74 3.67l-41.42 31.14c-3.15 2.42-3.54.94-1.98-2.3l16.21-33.69c1.25-2.58 2.48-4.87 4.56-6.45l41.19-31.31c2.19-1.66 4.1-1.89 3.15.1z" fill="#fff"/><path d="M377.309 317.51l-17.83 38.05c-.7 1.48-2.43 2.78-5.76 5.46l-45.47 36.64 14.45-37.35c1.04-2.7 3.01-5.12 5.08-6.75l45.16-35.67c2.18-1.73 5.32-2.4 4.37-.38zm-23.22 52.58l-10.66 25.04c-.34 1.08-1.18 2.5-2.18 3.16l-33.57 26.2-16.11-8.94 58.85-46.82c3.35-2.67 4.28-.02 3.67 1.36z" fill="#ffff25"/><path d="M412.269 321.85l-15.95 33.22c-.65 1.38-4.49 4.53-5.73 5.49l-38.21 28.15c-1.25.63-2.22.84-1.39-.76l13.76-29.97c1.13-2.45 3.34-5.1 5.3-6.59l38.95-29.55c2.06-1.56 4.17-1.87 3.27.01z" fill="#e88a1a"/></g><g fill-rule="evenodd"><path d="M211.959 55.774l51.32-32.476c1.91-1.212 3.71-.583 4.9.434l50.33 43.282c2.02 1.819 1.92 5.086-.4 6.293l-48.39 32.293c-1.72 1.16-5.26 1.25-6.69 0l-51.44-45.116c-1.49-1.218-1.22-3.53.37-4.71zM353.089 181.2l46.05-34.84c1.79-1.35 6.12-.92 7.29.09l54.69 48.54c1.42 1.23 2.13 5.29.62 6.5l-46.81 34.71c-1.61 1.29-6.59 1.27-8.38-.35l-54.17-48.76c-1.42-1.28-.85-4.71.71-5.89z" fill="#ffff25"/><path d="M283.039 118.75l47.57-32.56c1.85-1.27 6.14-1.07 7.31-.06l50.7 43.84c2.31 1.99 2.15 5.93.58 7.07l-46.43 33.44c-3.25 2.34-6.63 1.48-9.09-.74l-50.87-45.83c-1.42-1.28-1.39-4.05.23-5.16zm-141.1-18.05l52.27-32.606c3.21-2.136 6.24-1.616 8.54.427l48.16 42.809c2.6 2.31 2.71 7.03.05 8.92l-47.58 33c-3.25 2.3-8.28 1.29-10.7-.95l-49.79-46.01c-1.39-1.28-2.57-4.51-.95-5.59zm72.47 63.46l48.97-33.56c1.82-1.25 6.02-1.06 7.15-.06l49.6 43.37c4.34 3.79 4.15 8.95 1.55 10.82l-55.93 40.3-52.79-52.89c-2.77-2.78-.76-6.47 1.45-7.98zm73.96 67.73l48.81-36.12c1.76-1.3 6.02-1.08 7.13-.06l52.83 48.58c2.19 2.01 2.06 5.73.57 6.89l-48.92 37.96c-3.08 2.39-6.5 1.48-8.86-.72l-51.78-48.33c-2.48-2.32-2.18-6.42.22-8.2z" fill="#2ac44b"/></g><path d="M316.51 387.7c-1.17-5.67-3.5-11-3.5-11s4.08-3.83 2-13.25L283.7 222.07c-2.11-9.53-5.12-15.89-17.32-20.5L89.63 134.7c-1.867-1.36-10.159-3.29-15.77.19L18.509 169.2c-4.068 2.52-8.268 6.51-4.375 18.5l19 58.5c1.523 4.69 8.875 7.19 8.875 7.19s-4.932 3.94-2.375 11.81l19.125 58.88c.872 3.84 5.647 6.13 5.647 6.13s-3.659 1.5-1.772 7.24l15.75 47.88c1.614 4.9 3.002 10.51 8.25 13.62l45.996 27.25c4.89 2.82 5.92-1.46 5.92-1.46s-.53 3.62 4.67 7.05l50.54 30.04c7.14 4.17 10.98-1.26 10.98-1.26s-2.85 4.25 5.26 8.98l49.69 29.05c4.56 2.67 8.63 2.18 12.82-1.15l52.78-41.94c3.43-2.73 4.24-4.5 2.61-12.73l-11.39-55.08z" fill-rule="evenodd"/><g fill-rule="evenodd"><path d="M147.57 218.52l51.08-35.89c3.04-2.02 7.89-1.56 11.6.05l51.48 20.04c3.44 1.49 3.64 4.8 1.25 6.44l-54.05 36.24c-4.27 2.94-8.71 2.97-12.26 1.35l-47.94-19.47c-4.54-2.06-5.51-5.86-1.16-8.76z" fill="#355ee5"/><path d="M81.827 191.52l50.393-33.69c2.98-1.94 7.32-1.59 10.98-.11l43.13 16.37c4.78 1.93 2.95 5.31.62 6.9l-49.93 33.93c-4.18 2.86-8.49 3.89-11.96 2.33l-43.562-17.11c-4.442-1.99-4.963-5.17.329-8.62z" fill="#ffff25"/><path d="M23.542 169.36l49.834-31.37c4.351-2.68 9.058-2.95 12.637-1.5l34.787 13.57c4.66 1.88 3.52 4.97 1.18 6.45l-50.704 32.56c-4.189 2.65-6.501 2.68-9.922 1.22l-39.745-16.16c-2.699-1.15-.521-3.26 1.933-4.77z" fill="#f03031"/></g><g opacity=".8" fill-rule="evenodd"><path d="M168.159 330.91l13.74 53.99c.9 3.54 3.97 7.19 9 9.56l43.24 20.38c4.31 2.03 8.55 3.13 6.35-5.52l-13.78-54.06c-1.29-5.04-5.05-6.54-7.78-7.85l-45.11-21.65c-2.87-1.38-7.19-.84-5.66 5.15z" fill="#f03031"/><path d="M139.679 244.67l16.18 54.43c1.02 3.44 2.96 7.84 9.57 10.85l43.87 19.98c4.25 1.94 7.78 2.31 5.5-6.15l-14.57-56.23c-1.33-4.92-2.71-7.84-7.23-9.69l-47.76-20.68c-5.77-2.36-7.73.16-5.56 7.49z" fill="#fff"/><path d="M190.419 411.6l11.39 41.86c.88 3.36 2.46 10.19 6.98 12.92l45.97 26.65c3.88 2.33 5.74-2.1 3.95-8.84l-12.04-46.58c-1.27-4.77-4.76-7.6-7.29-8.97l-44.57-21.92c-4.14-2.24-5.88-.79-4.39 4.88zM76.739 220l15.6 49.62c1.04 3.25 3.82 9.43 10.11 12.32l37.74 17.37c4.05 1.86 7.64 1.42 5.24-6.57l-14.76-49.05c-1.4-4.65-3.24-10.17-7.52-12.01l-40.41-17.39c-5.45-2.35-8.232-1.22-6 5.71z" fill="#355ee5"/><path d="M17.896 193.7l15.124 46.86c1.46 5.53 2.577 8.11 6.562 10.1l37.067 15.74c5.09 1.65 4.94-1.21 2.53-9l-13.026-43.6c-1.4-4.53-4.089-9.48-8.281-11.26l-34.108-14.42c-5.34-2.26-7.98-1.22-5.868 5.58z" fill="#2ac44b"/><path d="M104.779 303.29l13.54 46.51c.96 3.29 3.26 6.86 9.39 10.13l37.62 20.04c3.94 2.1 5.82.34 4.53-4.68l-12.41-48.24c-1.22-4.72-2.14-9.05-6.35-11.09l-41.01-19.83c-5.88-2.85-7.35.14-5.31 7.16z" fill="#e88a1a"/><path d="M43.89 271.48l15.117 48.65c1.353 5.45 2.579 7.17 8.607 10.02l33.565 16.51c3.87 1.84 5.31-.11 3.75-5.46l-14.09-49.93c-1.31-4.5-3.73-9.35-7.84-11.16l-35.911-17.15c-4.478-1.97-5.375 1.84-3.198 8.52z" fill="#355ee5"/><path d="M124.529 379.81l12.74 42.31c.94 3.21 3.98 6.66 9.82 10.1l37.36 21.89c3.76 2.22 6.63.99 5.34-3.91l-12.13-45.94c-1.22-4.61-2.41-8.21-6.45-10.35l-41.25-21.57c-7.86-4.16-7.57.13-5.43 7.47z" fill="#fff"/><path d="M67.051 345.85l13.358 41.41c.97 3.2 2.34 7.22 8.16 10.68l36.23 21.26c3.74 2.23 6.3-.04 4.97-4.71l-13.92-44.39c-1.3-4.57-3.62-7.43-7.59-9.67L71.133 339.6c-5.55-3.14-6.152-.57-4.082 6.25z" fill="#ffff25"/></g><path id="d" d="M209.92 256.22a5.516 5.516 0 1 1-5.52-5.51c3.05 0 5.52 2.47 5.52 5.51z" fill-rule="evenodd" fill="url(#c)"/><use opacity=".6" xlink:href="#d" transform="translate(-110.31 26.163)" height="550" width="544"/><use opacity=".9" xlink:href="#d" transform="translate(24.395 85.56)" height="550" width="544"/><use opacity=".4" xlink:href="#d" transform="translate(-87.328 102.53)" height="550" width="544"/><use opacity=".5" xlink:href="#d" transform="translate(-26.163 135.76)" height="550" width="544"/><use opacity=".6" xlink:href="#d" transform="translate(42.426 167.58)" height="550" width="544"/><use xlink:href="#d" transform="translate(-71.064 -30.052)" height="550" width="544"/><use xlink:href="#d" transform="translate(-134.7 -56.569)" height="550" width="544"/><use opacity=".6" xlink:href="#d" transform="translate(-45.255 53.74)" height="550" width="544"/><use xlink:href="#d" transform="translate(-8.485 -93.338)" height="550" width="544"/><use xlink:href="#d" transform="translate(60.811 -143.54)" height="550" width="544"/><use xlink:href="#d" transform="translate(131.52 -78.489)" height="550" width="544"/><use xlink:href="#d" transform="translate(205.06 -12.728)" height="550" width="544"/><use xlink:href="#d" transform="translate(135.06 40.305)" height="550" width="544"/><path id="f" opacity=".7" fill-rule="evenodd" transform="rotate(41.302)" fill="url(#e)" d="M284.55-92.592h88.035v12.374H284.55z"/><use opacity=".5" xlink:href="#f" transform="rotate(2.439 -2534.163 423.888)" height="550" width="544"/><use opacity=".5" xlink:href="#f" transform="translate(76.5 67)" height="550" width="544"/><use opacity=".3" xlink:href="#f" transform="translate(-69.5 -65)" height="550" width="544"/><use opacity=".4" xlink:href="#f" transform="translate(-138 -15)" height="550" width="544"/><use opacity=".3" xlink:href="#f" transform="matrix(.78879 -.38434 .18192 .89141 -162.96 196.79)" height="550" width="544"/><use opacity=".4" xlink:href="#f" transform="matrix(.79534 -.37059 .16642 .89443 -95.702 218.9)" height="550" width="544"/><use opacity=".2" xlink:href="#f" transform="matrix(.78879 -.38434 .18192 .89141 -224.07 170.53)" height="550" width="544"/><use opacity=".9" xlink:href="#f" transform="matrix(.42194 .69078 -.85714 .0929 334.54 100.68)" height="550" width="544"/><g opacity=".9" fill-rule="evenodd"><path d="M276.009 224.68l12.24 57.32c.79 3.68-.36 9.64-2.61 11.3l-50.95 37.22c-5.56 4.09-8.61-.11-9.33-3.01l-15.09-60.4c-1.29-5.18 1.76-8.78 4.34-10.52l52.05-35.11c2.72-1.83 8.23-2.07 9.35 3.2z" fill="#f03031"/><path d="M296.139 308.84l12.15 56.54c.8 3.49-1.47 8.82-3.56 10.47l-45.78 35.27c-3.47 2.76-9.91 2.66-10.89-1.32l-13.76-57.93c-1.21-4.95 2.3-9.45 4.66-11.24l48.51-34.36c3.19-2.41 7.53-2.43 8.67 2.57z" fill="#2ac44b"/><path d="M313.679 390.74l11.6 53.46c.73 3.44-.57 7.81-2.62 9.43l-46.12 36.51c-5.09 4.02-8.13 2.07-9.11-1.83l-12.93-54.65c-1.22-4.84 2.72-8.09 5.05-9.83l45.63-35.12c3.14-2.36 7.46-2.9 8.5 2.03z" fill="#ffff25"/></g><g fill-rule="evenodd" color="#000"><path d="M145.38 151.03c17.71 7.23 25.43 7.44 42.53 17.73l-6.14-10.08c4.64 6.4-14.4-14.09-21.7-16.48-4.56-.93 2.97-1.63-14.69 8.83z" filter="url(#g)" fill="url(#h)"/><path d="M136.57 115.28l-8.01 27.48 9.03 7.34c-2.03-1.19 13.57-12.92 13.27-20.23-.35-8.5-11.65-12.77-14.29-14.59z" filter="url(#i)" fill="url(#j)"/><path d="M301 292.82l14 59.2.77-13.16-5.22-6.52 9.56 3.91c5.64-19.57 5.65-37.9.87-55.16L301 292.82z" transform="matrix(1 0 0 1.0786 0 -17.613)" filter="url(#k)" fill="url(#l)"/><path d="M288.4 257.65l6.95 32.57c6.26-4.99 8.76-11.37 19.59-7.23l-26.54-25.34z" filter="url(#m)" fill="url(#n)"/></g></svg>