<svg xmlns="http://www.w3.org/2000/svg" version="1.0" width="88.647" height="88.775"><path d="M44.317 4.355c-22.134 0-39.994 17.905-39.994 40.039s17.774 39.934 39.908 39.934 40.062-17.731 40.062-39.865S66.485 4.349 44.351 4.349l-.034.006zm-.003 9.094c17.106 0 30.902 13.84 30.902 30.945S61.42 75.348 44.314 75.348c-17.105 0-30.988-13.849-30.988-30.954 0-17.106 13.883-30.945 30.988-30.945z" fill="#eeeeec"/><path d="M18.053 29.247l26.263-15.115 26.165 15.129-.045 30.318-26.192 15.149-26.225-15.15.034-30.331z" fill="#eeeeec"/><path d="M30.888 67.023l-12.85-7.427-.029-14.935c-.016-8.215.01-14.971.057-15.014.062-.058 21.545 12.265 25.534 14.647l.422.252v14.957c0 11.893-.03 14.957-.142 14.953-.078-.003-5.925-3.348-12.992-7.433zm7.22-3.594c0-1.76-.025-2.05-.198-2.253-.11-.127-2.425-1.445-5.146-2.929-5.388-2.937-5.892-3.238-6.606-3.949-.869-.864-.872-.886-.917-5.29-.038-3.784-.032-3.91.186-4.069.456-.334.38-.37 6.971 3.272 5.768 3.186 5.466 3.034 5.603 2.818.058-.09.105-1.067.106-2.17.002-1.75-.024-2.035-.197-2.233-.232-.264-10.854-6.158-11.69-6.486-1.934-.761-3.154-.438-3.791 1.002-.393.89-.466 1.845-.465 6.084.002 5.538.229 7.008 1.387 8.983.563.962 2.124 2.554 3.173 3.235.414.27 3.126 1.784 6.027 3.365 3.852 2.1 5.312 2.843 5.416 2.758.104-.086.142-.66.142-2.138zm32.165-35.794c-2.05-3.166-4.49-5.769-7.545-8.047a30.909 30.909 0 0 0-16.716-6.059l-1.365-.077-.03-4.523c-.024-3.797-.003-4.534.13-4.585.252-.097 3.606.165 5.359.417 2.343.337 4.392.83 6.823 1.64 2.446.817 3.878 1.422 6.068 2.568 5.214 2.728 9.766 6.614 13.383 11.425 1.038 1.38 2.461 3.569 2.413 3.71-.033.096-7.678 4.53-7.803 4.526-.04-.001-.363-.449-.717-.995z" fill="#ddda45"/><path d="M75.18 61.949c-2.032-1.181-3.74-2.216-3.794-2.3-.064-.1.114-.573.526-1.398a30.999 30.999 0 0 0 .006-27.726c-.34-.68-.596-1.295-.567-1.368.062-.162 7.428-4.416 7.678-4.434.518-.038 2.925 5.467 3.834 8.769 1.06 3.849 1.458 6.819 1.46 10.89.003 4.054-.396 7.026-1.46 10.892-.881 3.2-3.281 8.733-3.818 8.8-.093.012-1.832-.944-3.865-2.125z" fill="#e7762a"/><path d="M44.59 59.517V44.574l1.166-.68c6.302-3.675 24.688-14.236 24.723-14.2.025.024.048 6.736.051 14.916.005 12.233-.02 14.896-.145 15.014-.083.08-5.32 3.125-11.637 6.768s-12.047 6.95-12.733 7.347c-.686.397-1.288.722-1.336.722-.049 0-.088-6.725-.088-14.944zm7.904 4.946l.682-.41 1.024-2.956 1.023-2.955 3.637-2.018c2-1.11 3.672-2.018 3.717-2.018.044 0 .448.667.898 1.483.45.815.906 1.593 1.015 1.727l.197.244 1.294-.734c.712-.404 1.31-.819 1.33-.922.02-.103-1.11-2.353-2.51-5.001-1.402-2.648-3-5.675-3.552-6.726-1.087-2.07-1.325-2.328-2.009-2.178-.442.097-1.117.773-1.421 1.422-.13.279-1.366 3.705-2.745 7.614-1.379 3.91-3.101 8.785-3.827 10.836-.726 2.05-1.288 3.78-1.25 3.843.07.112 1.042-.376 2.497-1.251zm5.375-14.04c.546-1.601 1.037-2.896 1.091-2.88.16.052 2.021 3.489 1.95 3.603-.062.102-3.448 1.966-3.837 2.112-.153.058.02-.562.796-2.836zM8.57 62.377c-1.858-3.74-3.05-7.381-3.718-11.374-.383-2.288-.517-4.034-.517-6.73 0-5.273.957-10.197 2.918-15.016.5-1.227 2.008-4.344 2.19-4.528.075-.075 7.413 4.043 7.785 4.367.054.048-.183.641-.528 1.318-1.621 3.187-2.687 6.74-3.166 10.556-.206 1.638-.176 5.49.055 7.203.505 3.744 1.586 7.248 3.185 10.328.41.788.49 1.03.38 1.137-.24.232-7.454 4.36-7.62 4.36-.09 0-.507-.703-.964-1.62z" fill="#e02826"/><path d="M13.833 26.474c-2.06-1.188-3.813-2.228-3.895-2.31-.123-.123-.018-.355.6-1.331 5.452-8.598 14.25-14.901 24.197-17.336 2.787-.682 5.417-1.046 8.036-1.112l1.194-.03v9.097l-1.364.079c-5.53.32-10.772 2.06-15.318 5.09-2.027 1.35-3.18 2.29-4.813 3.925-1.59 1.59-2.556 2.767-3.829 4.666-.503.75-.948 1.377-.988 1.393-.041.016-1.76-.943-3.82-2.13v-.001z" fill="#3d9c46"/><path d="M13.675 62.27c2.039-1.17 3.788-2.132 3.888-2.137.119-.006.44.385.947 1.155a30.999 30.999 0 0 0 24.01 13.868c.758.045 1.419.131 1.468.192.109.135.11 8.642 0 8.867-.226.468-6.197-.2-9.511-1.064-3.864-1.007-6.635-2.147-10.162-4.18-3.511-2.025-5.887-3.857-8.702-6.71-2.331-2.364-5.922-7.21-5.713-7.708.037-.086 1.735-1.114 3.774-2.284z" fill="#eeeeec"/><path d="M44.647 84.338c-.032-.085-.046-2.15-.03-4.59l.03-4.434 1.365-.08c5.526-.318 10.776-2.064 15.321-5.092 2.012-1.34 3.169-2.285 4.808-3.924 1.596-1.596 2.566-2.777 3.83-4.664.504-.75.95-1.378.993-1.395.093-.037 7.497 4.228 7.71 4.442.124.124.025.346-.574 1.291-3.803 5.998-9.395 11.06-15.723 14.232-5.199 2.605-10.271 3.934-16.392 4.293-1.025.06-1.29.045-1.338-.08zM31.26 36.558c-7.05-4.077-12.82-7.464-12.82-7.527 0-.164 25.58-14.897 25.866-14.897.319 0 26.025 14.846 25.907 14.962-.257.252-25.76 14.888-25.932 14.882-.11-.004-5.97-3.343-13.021-7.42zm8.513.625c.255-.13.54-.354.633-.498.093-.144.976-1.81 1.96-3.702.986-1.892 1.827-3.44 1.871-3.44.044 0 .896 1.59 1.894 3.535 1.247 2.428 1.93 3.637 2.183 3.862.755.669 2.18.735 3.038.141.425-.294.705-.806 3.625-6.61 1.74-3.461 3.136-6.365 3.102-6.453-.05-.13-.421-.16-1.913-.16-1.018.002-1.91.04-1.98.086-.07.046-1.06 1.945-2.197 4.22-1.15 2.302-2.11 4.093-2.164 4.038-.053-.056-.876-1.61-1.83-3.455-.952-1.845-1.859-3.527-2.014-3.737-.763-1.032-2.596-1.062-3.441-.057-.154.183-1.098 1.904-2.099 3.825-1 1.92-1.847 3.492-1.88 3.493-.034.001-.953-1.803-2.043-4.008-1.09-2.204-2.056-4.098-2.146-4.207-.143-.174-.385-.199-1.937-.197-.976.001-1.846.047-1.933.103-.176.11.717 2.06 4.117 8.992 1.83 3.73 2.063 4.085 2.881 4.39.587.218 1.682.14 2.273-.16z" fill="#304a96"/><path d="M17.987 59.607l.044-30.362 26.34-15.158L70.446 29.2v30.406L44.326 74.72z" fill="none" stroke="#000" stroke-width=".5"/><path d="M87.715 44.83A41.358 41.056 0 1 1 5 44.83a41.358 41.056 0 1 1 82.715 0z" transform="matrix(.96718 0 0 .97428 -.512 .71)" fill="none" stroke-width=".515" stroke="#000"/><path transform="matrix(.74174 0 0 .74719 9.938 10.89)" d="M87.715 44.83A41.358 41.056 0 1 1 5 44.83a41.358 41.056 0 1 1 82.715 0z" fill="none" stroke="#000" stroke-width=".672"/><path d="M24.344 39.75c-.886.035-1.508.506-1.907 1.406-.393.89-.47 1.824-.468 6.063.002 5.538.217 7.024 1.375 9 .564.961 2.14 2.537 3.187 3.218.414.27 3.13 1.794 6.032 3.376 3.852 2.1 5.302 2.835 5.406 2.75.104-.086.125-.648.125-2.126 0-1.76-.014-2.047-.188-2.25-.11-.127-2.435-1.454-5.156-2.937-5.388-2.937-5.88-3.227-6.594-3.938-.868-.864-.862-.908-.906-5.312-.038-3.783-.03-3.903.188-4.063.455-.333.376-.36 6.968 3.282 5.769 3.186 5.457 3.029 5.594 2.812.057-.09.093-1.084.094-2.187.002-1.75-.014-2.021-.188-2.219-.232-.264-10.852-6.172-11.687-6.5-.726-.285-1.344-.396-1.875-.375zm35.125 2.219a1.184 1.184 0 0 0-.219.031c-.442.097-1.133.757-1.438 1.406-.13.28-1.37 3.716-2.75 7.625-1.379 3.91-3.086 8.793-3.812 10.844-.726 2.05-1.289 3.78-1.25 3.844.069.111 1.045-.375 2.5-1.25l.688-.406 1-2.97 1.03-2.937 3.657-2.031c2-1.11 3.643-2.031 3.688-2.031.044 0 .456.684.906 1.5.45.815.922 1.584 1.031 1.718l.188.25 1.28-.75c.712-.404 1.325-.803 1.344-.906.02-.103-1.099-2.352-2.5-5-1.4-2.648-3.01-5.667-3.562-6.718-.951-1.811-1.263-2.242-1.781-2.22zm-.5 5.562c.16.052 2.008 3.511 1.937 3.625-.063.103-3.454 1.948-3.843 2.094-.154.058.036-.539.812-2.813.546-1.6 1.04-2.923 1.094-2.906zM32.438 23.844c-.976.001-1.85.07-1.938.125-.175.11.725 2.067 4.125 9 1.83 3.73 2.057 4.07 2.875 4.375.587.218 1.69.145 2.281-.157.255-.13.532-.355.625-.5.094-.144.984-1.826 1.969-3.718.985-1.892 1.831-3.438 1.875-3.438.044 0 .877 1.587 1.875 3.532 1.247 2.428 1.935 3.65 2.188 3.874.754.67 2.174.75 3.03.157.426-.295.706-.82 3.626-6.625 1.74-3.46 3.127-6.35 3.093-6.438-.05-.13-.414-.189-1.906-.187-1.018.001-1.898.048-1.968.093-.071.046-1.05 1.944-2.188 4.22-1.15 2.3-2.134 4.086-2.188 4.03-.052-.055-.86-1.592-1.812-3.437-.953-1.845-1.876-3.54-2.031-3.75-.764-1.032-2.593-1.037-3.438-.031-.154.183-1.093 1.892-2.093 3.812-1.001 1.92-1.842 3.5-1.876 3.5-.033.002-.94-1.826-2.03-4.031-1.09-2.205-2.067-4.078-2.157-4.188-.144-.174-.386-.22-1.938-.218z" fill="none" stroke="#000" stroke-width=".25"/></svg>